<svg xmlns="http://www.w3.org/2000/svg" xmlns:xlink="http://www.w3.org/1999/xlink" fill="none" version="1.1" width="34" height="34" viewBox="0 0 34 34"><g><g><path d="M17,34Q17.4173,34,17.8342,33.9795Q18.251,33.959,18.6663,33.9181Q19.0816,33.8772,19.4944,33.816Q19.9072,33.7548,20.3165,33.6733Q20.7258,33.5919,21.1307,33.4905Q21.5355,33.3891,21.9348,33.268Q22.3342,33.1468,22.7271,33.0062Q23.1201,32.8657,23.5056,32.7059Q23.8912,32.5462,24.2684,32.3678Q24.6457,32.1894,25.0137,31.9927Q25.3818,31.7959,25.7397,31.5814Q26.0977,31.3668,26.4447,31.135Q26.7917,30.9031,27.1269,30.6545Q27.4621,30.4059,27.7847,30.1412Q28.1073,29.8764,28.4165,29.5962Q28.7257,29.3159,29.0208,29.0208Q29.3159,28.7257,29.5962,28.4165Q29.8764,28.1073,30.1412,27.7847Q30.4059,27.4621,30.6545,27.1269Q30.9031,26.7917,31.135,26.4447Q31.3668,26.0977,31.5814,25.7397Q31.7959,25.3818,31.9927,25.0137Q32.1894,24.6457,32.3678,24.2684Q32.5462,23.8912,32.7059,23.5056Q32.8657,23.1201,33.0062,22.7271Q33.1468,22.3342,33.268,21.9348Q33.3891,21.5355,33.4905,21.1307Q33.5919,20.7258,33.6733,20.3165Q33.7548,19.9072,33.816,19.4944Q33.8772,19.0816,33.9181,18.6663Q33.959,18.251,33.9795,17.8342Q34,17.4173,34,17Q34,16.5827,33.9795,16.1658Q33.959,15.749,33.9181,15.3337Q33.8772,14.9184,33.816,14.5056Q33.7548,14.0928,33.6733,13.6835Q33.5919,13.2742,33.4905,12.8693Q33.3891,12.4645,33.268,12.0652Q33.1468,11.6658,33.0062,11.2729Q32.8657,10.8799,32.7059,10.4944Q32.5462,10.1088,32.3678,9.73156Q32.1894,9.3543,31.9927,8.98625Q31.7959,8.61821,31.5814,8.26025Q31.3668,7.9023,31.135,7.55531Q30.9031,7.20831,30.6545,6.87311Q30.4059,6.53791,30.1412,6.21531Q29.8764,5.89272,29.5962,5.5835Q29.3159,5.27428,29.0208,4.97918Q28.7257,4.68409,28.4165,4.40383Q28.1073,4.12357,27.7847,3.85882Q27.4621,3.59407,27.1269,3.34547Q26.7917,3.09687,26.4447,2.86502Q26.0977,2.63316,25.7397,2.41861Q25.3818,2.20406,25.0137,2.00734Q24.6457,1.81061,24.2684,1.63218Q23.8912,1.45375,23.5056,1.29405Q23.1201,1.13434,22.7271,0.993751Q22.3342,0.853158,21.9348,0.732014Q21.5355,0.610871,21.1307,0.509469Q20.7258,0.408067,20.3165,0.32665Q19.9072,0.245234,19.4944,0.183999Q19.0816,0.122765,18.6663,0.0818596Q18.251,0.0409545,17.8342,0.0204772Q17.4173,0,17,0Q16.5827,0,16.1658,0.0204772Q15.749,0.0409545,15.3337,0.0818596Q14.9184,0.122765,14.5056,0.183999Q14.0928,0.245234,13.6835,0.32665Q13.2742,0.408067,12.8693,0.509469Q12.4645,0.610871,12.0652,0.732014Q11.6658,0.853158,11.2729,0.993751Q10.8799,1.13434,10.4944,1.29405Q10.1088,1.45375,9.73156,1.63218Q9.3543,1.81061,8.98625,2.00734Q8.61821,2.20406,8.26025,2.41861Q7.9023,2.63316,7.55531,2.86502Q7.20831,3.09687,6.87311,3.34547Q6.53791,3.59407,6.21531,3.85882Q5.89272,4.12357,5.5835,4.40383Q5.27428,4.68409,4.97918,4.97918Q4.68409,5.27428,4.40383,5.5835Q4.12357,5.89272,3.85882,6.21531Q3.59407,6.53791,3.34547,6.87311Q3.09687,7.20831,2.86502,7.55531Q2.63316,7.9023,2.41861,8.26025Q2.20406,8.61821,2.00734,8.98625Q1.81061,9.3543,1.63218,9.73156Q1.45375,10.1088,1.29405,10.4944Q1.13434,10.8799,0.993751,11.2729Q0.853158,11.6658,0.732014,12.0652Q0.610871,12.4645,0.509469,12.8693Q0.408067,13.2742,0.32665,13.6835Q0.245234,14.0928,0.183999,14.5056Q0.122765,14.9184,0.0818596,15.3337Q0.0409545,15.749,0.0204772,16.1658Q0,16.5827,0,17Q0,17.4173,0.0204772,17.8342Q0.0409545,18.251,0.0818596,18.6663Q0.122765,19.0816,0.183999,19.4944Q0.245234,19.9072,0.32665,20.3165Q0.408067,20.7258,0.509469,21.1307Q0.610871,21.5355,0.732014,21.9348Q0.853158,22.3342,0.993751,22.7271Q1.13434,23.1201,1.29405,23.5056Q1.45375,23.8912,1.63218,24.2684Q1.81061,24.6457,2.00734,25.0137Q2.20406,25.3818,2.41861,25.7397Q2.63316,26.0977,2.86502,26.4447Q3.09687,26.7917,3.34547,27.1269Q3.59407,27.4621,3.85882,27.7847Q4.12357,28.1073,4.40383,28.4165Q4.68409,28.7257,4.97918,29.0208Q5.27428,29.3159,5.5835,29.5962Q5.89272,29.8764,6.21531,30.1412Q6.53791,30.4059,6.87311,30.6545Q7.20831,30.9031,7.55531,31.135Q7.9023,31.3668,8.26025,31.5814Q8.61821,31.7959,8.98625,31.9927Q9.3543,32.1894,9.73156,32.3678Q10.1088,32.5462,10.4944,32.7059Q10.8799,32.8657,11.2729,33.0062Q11.6658,33.1468,12.0652,33.268Q12.4645,33.3891,12.8693,33.4905Q13.2742,33.5919,13.6835,33.6733Q14.0928,33.7548,14.5056,33.816Q14.9184,33.8772,15.3337,33.9181Q15.749,33.959,16.1658,33.9795Q16.5827,34,17,34ZM9.47449,18.7294Q8.98682,18.2048,9.00037,17.4907Q9.01391,16.7766,9.50158,16.252Q9.98925,15.7273,10.6937,15.7419Q11.3981,15.7565,11.8857,16.2811L14.5137,19.0791L22.1538,10.8599Q22.6415,10.3353,23.3459,10.3207Q24.0503,10.3061,24.538,10.8308Q25.0257,11.3554,24.9986,12.1278Q24.9715,12.9001,24.4838,13.4248L15.7871,22.7807L15.7861,22.7817Q15.2986,23.3054,14.5137,23.3199Q13.728,23.3345,13.2404,22.8099L9.47449,18.7294Z" fill-rule="evenodd" fill="#FFFFFF" fill-opacity="1"/><path d="M34,17Q34,17.4173,33.9795,17.8342Q33.959,18.251,33.9181,18.6663Q33.8772,19.0816,33.816,19.4944Q33.7548,19.9072,33.6733,20.3165Q33.5919,20.7258,33.4905,21.1307Q33.3891,21.5355,33.268,21.9348Q33.1468,22.3342,33.0062,22.7271Q32.8657,23.1201,32.7059,23.5056Q32.5462,23.8912,32.3678,24.2684Q32.1894,24.6457,31.9927,25.0137Q31.7959,25.3818,31.5814,25.7397Q31.3668,26.0977,31.135,26.4447Q30.9031,26.7917,30.6545,27.1269Q30.4059,27.4621,30.1412,27.7847Q29.8764,28.1073,29.5962,28.4165Q29.3159,28.7257,29.0208,29.0208Q28.7257,29.3159,28.4165,29.5962Q28.1073,29.8764,27.7847,30.1412Q27.4621,30.4059,27.1269,30.6545Q26.7917,30.9031,26.4447,31.135Q26.0977,31.3668,25.7397,31.5814Q25.3818,31.7959,25.0137,31.9927Q24.6457,32.1894,24.2684,32.3678Q23.8912,32.5462,23.5056,32.7059Q23.1201,32.8657,22.7271,33.0062Q22.3342,33.1468,21.9348,33.268Q21.5355,33.3891,21.1307,33.4905Q20.7258,33.5919,20.3165,33.6733Q19.9072,33.7548,19.4944,33.816Q19.0816,33.8772,18.6663,33.9181Q18.251,33.959,17.8342,33.9795Q17.4173,34,17,34Q16.5827,34,16.1658,33.9795Q15.749,33.959,15.3337,33.9181Q14.9184,33.8772,14.5056,33.816Q14.0928,33.7548,13.6835,33.6733Q13.2742,33.5919,12.8693,33.4905Q12.4645,33.3891,12.0652,33.268Q11.6658,33.1468,11.2729,33.0062Q10.8799,32.8657,10.4944,32.7059Q10.1088,32.5462,9.73156,32.3678Q9.3543,32.1894,8.98625,31.9927Q8.61821,31.7959,8.26025,31.5814Q7.9023,31.3668,7.55531,31.135Q7.20831,30.9031,6.87311,30.6545Q6.53791,30.4059,6.21531,30.1412Q5.89272,29.8764,5.5835,29.5962Q5.27428,29.3159,4.97918,29.0208Q4.68409,28.7257,4.40383,28.4165Q4.12357,28.1073,3.85882,27.7847Q3.59407,27.4621,3.34547,27.1269Q3.09687,26.7917,2.86502,26.4447Q2.63316,26.0977,2.41861,25.7397Q2.20406,25.3818,2.00734,25.0137Q1.81061,24.6457,1.63218,24.2684Q1.45375,23.8912,1.29405,23.5056Q1.13434,23.1201,0.993751,22.7271Q0.853158,22.3342,0.732014,21.9348Q0.610871,21.5355,0.509469,21.1307Q0.408067,20.7258,0.32665,20.3165Q0.245234,19.9072,0.183999,19.4944Q0.122765,19.0816,0.0818596,18.6663Q0.0409545,18.251,0.0204772,17.8342Q0,17.4173,0,17Q0,16.5827,0.0204772,16.1658Q0.0409545,15.749,0.0818596,15.3337Q0.122765,14.9184,0.183999,14.5056Q0.245234,14.0928,0.32665,13.6835Q0.408067,13.2742,0.509469,12.8693Q0.610871,12.4645,0.732014,12.0652Q0.853158,11.6658,0.993751,11.2729Q1.13434,10.8799,1.29405,10.4944Q1.45375,10.1088,1.63218,9.73156Q1.81061,9.3543,2.00734,8.98625Q2.20406,8.61821,2.41861,8.26025Q2.63316,7.9023,2.86502,7.55531Q3.09687,7.20831,3.34547,6.87311Q3.59407,6.53791,3.85882,6.21531Q4.12357,5.89272,4.40383,5.5835Q4.68409,5.27428,4.97918,4.97918Q5.27428,4.68409,5.5835,4.40383Q5.89272,4.12357,6.21531,3.85882Q6.53791,3.59407,6.87311,3.34547Q7.20831,3.09687,7.55531,2.86502Q7.9023,2.63316,8.26025,2.41861Q8.61821,2.20406,8.98625,2.00734Q9.3543,1.81061,9.73156,1.63218Q10.1088,1.45375,10.4944,1.29405Q10.8799,1.13434,11.2729,0.993751Q11.6658,0.853158,12.0652,0.732014Q12.4645,0.610871,12.8693,0.509469Q13.2742,0.408067,13.6835,0.32665Q14.0928,0.245234,14.5056,0.183999Q14.9184,0.122765,15.3337,0.0818596Q15.749,0.0409545,16.1658,0.0204772Q16.5827,0,17,0Q17.4173,0,17.8342,0.0204772Q18.251,0.0409545,18.6663,0.0818596Q19.0816,0.122765,19.4944,0.183999Q19.9072,0.245234,20.3165,0.32665Q20.7258,0.408067,21.1307,0.509469Q21.5355,0.610871,21.9348,0.732014Q22.3342,0.853158,22.7271,0.993751Q23.1201,1.13434,23.5056,1.29405Q23.8912,1.45375,24.2684,1.63218Q24.6457,1.81061,25.0137,2.00734Q25.3818,2.20406,25.7397,2.41861Q26.0977,2.63316,26.4447,2.86502Q26.7917,3.09687,27.1269,3.34547Q27.4621,3.59407,27.7847,3.85882Q28.1073,4.12357,28.4165,4.40383Q28.7257,4.68409,29.0208,4.97918Q29.3159,5.27428,29.5962,5.5835Q29.8764,5.89272,30.1412,6.21531Q30.4059,6.53791,30.6545,6.87311Q30.9031,7.20831,31.135,7.55531Q31.3668,7.9023,31.5814,8.26025Q31.7959,8.61821,31.9927,8.98625Q32.1894,9.3543,32.3678,9.73156Q32.5462,10.1088,32.7059,10.4944Q32.8657,10.8799,33.0062,11.2729Q33.1468,11.6658,33.268,12.0652Q33.3891,12.4645,33.4905,12.8693Q33.5919,13.2742,33.6733,13.6835Q33.7548,14.0928,33.816,14.5056Q33.8772,14.9184,33.9181,15.3337Q33.959,15.749,33.9795,16.1658Q34,16.5827,34,17ZM27.6066,27.6066Q23.2132,32,17,32Q10.7868,32,6.3934,27.6066Q2,23.2132,2,17Q2,10.7868,6.3934,6.3934Q10.7868,2,17,2Q23.2132,2,27.6066,6.3934Q32,10.7868,32,17Q32,23.2132,27.6066,27.6066ZM8.00475,20.0858Q8.00718,20.0884,8.00961,20.0911L11.7755,24.1715Q12.8716,25.3507,14.5508,25.3196Q16.1842,25.2893,17.25,24.1445L17.252,24.1424L25.9487,14.7864Q26.9441,13.7156,26.9973,12.1979Q27.0534,10.5993,26.0029,9.4691Q24.905,8.28802,23.3046,8.32113Q21.7533,8.35323,20.689,9.49825L14.5061,16.1497L13.3506,14.9194Q12.2863,13.7744,10.735,13.7423Q9.13456,13.7092,8.0367,14.8903Q7.02877,15.9746,7.00073,17.4527Q6.97192,18.9711,8.00475,20.0858ZM15.8785,17.6109L22.1538,10.8599Q22.6415,10.3353,23.3459,10.3207Q24.0503,10.3061,24.538,10.8308Q25.0257,11.3554,24.9986,12.1278Q24.9715,12.9001,24.4838,13.4248L15.7871,22.7807L15.7861,22.7817Q15.2986,23.3054,14.5137,23.3199Q13.728,23.3345,13.2404,22.8099L9.47449,18.7294Q8.98682,18.2048,9.00037,17.4907Q9.01391,16.7766,9.50158,16.252Q9.98925,15.7273,10.6937,15.7419Q11.3981,15.7565,11.8857,16.2811L13.1413,17.618L14.5137,19.0791L15.8785,17.6109Z" fill-rule="evenodd" fill="#FFFFFF" fill-opacity="1"/></g></g></svg>